<svg xmlns="http://www.w3.org/2000/svg" width="526" height="543" viewBox="0 0 526 543">
<g>
<path d="M 363.22 441.83 L 358.94 444.00 L 261.72 443.91 L 164.50 443.81 L 154.00 437.88 C138.22,428.96 125.62,420.15 114.47,410.23 C82.19,381.55 62.70,351.75 46.95,307.00 C41.91,292.71 37.00,261.84 37.00,244.53 C37.00,219.38 43.26,182.81 50.32,166.79 C51.11,164.98 52.35,161.93 53.06,160.00 C54.62,155.79 64.25,135.72 66.73,131.49 C71.49,123.40 77.92,113.73 83.36,106.50 C92.15,94.82 116.79,70.60 129.39,61.26 C163.22,36.17 203.79,21.24 247.13,17.94 C264.80,16.60 287.26,17.86 302.00,21.02 C318.08,24.47 326.06,26.73 338.00,31.21 C349.61,35.56 369.45,44.45 371.00,46.00 C371.73,46.73 375.07,48.72 378.50,50.48 C382.51,52.53 398.21,64.28 408.33,72.80 C417.31,80.36 433.36,97.21 437.57,103.50 C439.05,105.70 440.59,107.72 441.00,108.00 C441.41,108.28 445.23,113.68 449.48,120.00 C465.12,143.25 476.77,171.45 481.50,197.50 C482.40,202.45 483.54,208.32 484.03,210.53 C486.63,222.28 486.07,259.31 483.00,279.00 C480.19,296.99 472.66,320.40 463.50,339.64 C456.49,354.35 451.92,361.76 439.71,378.20 C432.20,388.31 413.15,408.47 407.25,412.56 C405.00,414.11 404.11,418.00 406.00,418.00 C407.33,418.00 407.28,420.71 405.93,421.54 C405.35,421.90 404.62,421.26 404.32,420.10 C404.01,418.95 403.17,418.00 402.45,418.00 C401.72,418.00 396.71,421.04 391.31,424.76 C381.44,431.56 371.16,437.81 363.22,441.83 ZM 250.50 425.87 C256.00,430.82 260.74,434.90 261.04,434.93 C261.33,434.97 265.38,431.59 270.04,427.42 C274.69,423.24 281.34,417.78 284.81,415.28 C290.91,410.89 316.90,397.06 322.00,395.49 C326.55,394.10 351.65,381.34 357.63,377.39 C366.19,371.73 378.57,359.54 383.93,351.50 C390.06,342.31 393.60,334.12 396.56,322.22 C398.96,312.55 398.98,312.23 399.02,258.00 C399.08,192.90 399.79,179.21 403.46,171.89 C406.83,165.18 408.34,163.30 419.61,151.79 C419.96,151.43 420.30,151.08 420.63,150.75 C425.97,145.29 428.18,143.04 428.04,140.93 C427.94,139.32 426.45,137.80 423.94,135.00 C410.80,120.33 367.29,76.00 366.04,76.00 C365.18,76.00 363.36,77.01 361.99,78.25 C354.68,84.86 341.16,92.12 330.86,94.97 C309.40,100.92 290.29,94.67 268.50,74.59 C265.20,71.55 262.05,69.05 261.50,69.05 C260.95,69.04 258.48,70.88 256.00,73.14 C236.90,90.58 223.68,97.05 207.31,96.96 C193.08,96.89 179.51,91.80 165.53,81.28 C161.67,78.38 157.78,76.00 156.89,76.00 C156.00,76.00 152.40,79.06 148.89,82.81 C145.37,86.55 136.39,96.11 128.93,104.06 C101.57,133.19 95.00,140.40 95.00,141.32 C95.00,141.84 99.40,146.83 104.78,152.42 C110.16,158.00 115.84,164.75 117.40,167.42 C122.81,176.65 122.93,178.28 122.97,244.50 C123.00,281.06 123.43,308.10 124.04,312.00 C125.35,320.28 128.29,329.32 133.05,339.68 C137.74,349.89 141.56,355.48 149.85,364.22 C160.30,375.25 167.56,379.56 207.42,398.44 C226.46,407.45 238.68,415.23 250.50,425.87 ZM 118.07 442.25 C117.98,443.18 117.91,443.17 110.00,441.30 C106.43,440.46 100.80,439.67 97.50,439.54 C88.67,439.21 88.00,439.10 88.00,437.95 C88.00,437.37 89.57,436.24 91.50,435.44 C93.43,434.63 95.00,433.57 95.00,433.07 C95.00,432.57 97.25,431.15 100.00,429.90 C102.75,428.66 105.01,427.16 105.02,426.57 C105.05,424.12 107.05,422.73 112.29,421.51 L 117.84 420.22 L 118.48 428.36 C118.84,432.84 118.91,437.62 118.64,439.00 C118.37,440.38 118.12,441.84 118.07,442.25 ZM 409.08 436.55 C408.57,436.23 407.94,436.77 407.69,437.74 C407.44,438.71 407.18,437.76 407.12,435.63 C407.02,432.29 407.21,431.93 408.50,433.00 C410.11,434.33 410.62,437.50 409.08,436.55 ZM 101.50 436.00 C101.84,436.55 102.77,437.00 103.56,437.00 C104.35,437.00 105.00,436.55 105.00,436.00 C105.00,435.45 104.07,435.00 102.94,435.00 C101.81,435.00 101.16,435.45 101.50,436.00 Z" fill="rgb(12,45,83)"/>
<path d="M 460.77 522.57 L 460.50 539.50 L 261.72 539.75 C103.21,539.95 62.85,539.75 62.48,538.75 C62.22,538.06 61.90,529.85 61.76,520.50 L 61.50 503.50 L 31.75 503.24 C6.40,503.01 2.00,502.75 2.00,501.50 C2.00,500.15 14.21,485.22 24.92,473.48 C32.09,465.62 35.00,461.74 34.98,460.06 C34.97,459.20 28.85,451.52 21.38,443.00 C5.27,424.61 2.00,420.58 2.00,419.11 C2.00,418.31 14.67,418.00 46.57,418.00 C90.52,418.00 95.02,417.70 94.99,414.71 C94.98,414.05 92.87,411.25 90.29,408.50 C68.00,384.74 54.48,365.26 42.55,339.69 C27.11,306.63 19.03,263.07 21.86,228.22 C23.78,204.67 26.50,189.50 31.60,174.00 C39.67,149.51 45.53,136.51 56.44,118.96 C77.05,85.80 102.36,59.52 132.00,40.49 C136.12,37.85 140.62,34.95 142.00,34.06 C148.36,29.95 173.82,18.71 186.00,14.65 C215.02,4.96 240.74,1.22 270.50,2.37 C279.85,2.73 289.52,3.41 292.00,3.89 C294.48,4.36 301.85,5.74 308.40,6.95 C329.88,10.93 354.30,19.70 376.62,31.47 C408.58,48.32 441.94,79.73 462.86,112.67 C466.77,118.82 471.02,125.42 472.33,127.34 C478.82,136.91 490.54,167.05 494.99,185.60 C501.03,210.82 501.46,214.79 501.42,244.00 L 501.39 271.50 L 497.79 288.00 C491.68,316.07 482.32,340.55 469.01,363.31 C461.93,375.43 447.17,394.79 436.72,405.67 C436.02,406.40 435.36,407.08 434.74,407.72 C431.42,411.11 429.25,413.33 429.68,414.79 C430.55,417.79 442.38,417.61 477.62,418.00 L 523.17 418.50 L 514.12 429.50 C509.14,435.55 501.68,444.52 497.54,449.43 C493.39,454.33 490.00,459.10 490.00,460.01 C490.00,461.67 494.48,467.61 505.61,480.72 C516.69,493.77 522.50,501.15 522.50,502.18 C522.50,502.86 512.58,503.15 492.91,503.06 C468.97,502.94 463.10,503.17 462.18,504.28 C461.46,505.15 460.95,511.81 460.77,522.57 ZM 363.22 441.83 C371.16,437.81 381.44,431.56 391.31,424.76 C396.71,421.04 401.72,418.00 402.45,418.00 C403.17,418.00 404.01,418.95 404.32,420.10 C404.62,421.26 405.35,421.90 405.93,421.54 C407.28,420.71 407.33,418.00 406.00,418.00 C404.11,418.00 405.00,414.11 407.25,412.56 C413.15,408.47 432.20,388.31 439.71,378.20 C451.92,361.76 456.49,354.35 463.50,339.64 C472.66,320.40 480.19,296.99 483.00,279.00 C486.07,259.31 486.63,222.28 484.03,210.53 C483.54,208.32 482.40,202.45 481.50,197.50 C476.77,171.45 465.12,143.25 449.48,120.00 C445.23,113.68 441.41,108.28 441.00,108.00 C440.59,107.72 439.05,105.70 437.57,103.50 C433.36,97.21 417.31,80.36 408.33,72.80 C398.21,64.28 382.51,52.53 378.50,50.48 C375.07,48.72 371.73,46.73 371.00,46.00 C369.45,44.45 349.61,35.56 338.00,31.21 C326.06,26.73 318.08,24.47 302.00,21.02 C287.26,17.86 264.80,16.60 247.13,17.94 C203.79,21.24 163.22,36.17 129.39,61.26 C116.79,70.60 92.15,94.82 83.36,106.50 C77.92,113.73 71.49,123.40 66.73,131.49 C64.25,135.72 54.62,155.79 53.06,160.00 C52.35,161.93 51.11,164.98 50.32,166.79 C43.26,182.81 37.00,219.38 37.00,244.53 C37.00,261.84 41.91,292.71 46.95,307.00 C62.70,351.75 82.19,381.55 114.47,410.23 C125.62,420.15 138.22,428.96 154.00,437.88 L 164.50 443.81 L 261.72 443.91 L 358.94 444.00 ZM 265.95 405.75 C261.69,409.50 261.07,409.62 258.43,407.25 C245.44,395.59 228.57,385.88 195.47,371.02 C177.39,362.90 163.22,351.87 154.74,339.31 C150.43,332.92 145.28,320.77 143.98,313.88 C143.40,310.86 143.00,282.12 143.00,244.51 C143.00,209.19 142.61,178.99 142.12,177.40 C141.64,175.80 140.69,172.02 140.01,169.00 C138.47,162.13 133.42,153.03 127.53,146.50 C125.05,143.75 123.01,140.88 123.01,140.12 C123.00,139.36 126.57,135.08 130.93,130.62 C135.29,126.15 139.83,121.38 141.01,120.00 C143.97,116.56 155.42,104.73 157.28,103.18 C158.53,102.15 159.49,102.32 162.65,104.13 C178.97,113.48 190.93,117.00 206.33,117.00 C226.15,117.00 238.50,112.46 259.63,97.43 C261.44,96.14 261.98,96.12 263.13,97.28 C268.17,102.31 282.37,110.27 293.00,114.01 C301.02,116.83 319.75,117.89 329.28,116.05 C339.42,114.10 349.76,110.29 357.11,105.81 C359.65,104.27 362.40,103.00 363.22,103.00 C365.06,103.00 400.00,139.26 399.99,141.15 C399.98,141.89 397.84,144.75 395.22,147.50 C386.88,156.27 382.12,165.67 380.04,177.43 C379.40,181.12 378.99,206.54 378.98,244.43 C378.97,279.12 378.53,308.44 377.98,312.31 C375.51,329.38 365.63,345.57 350.00,358.17 C344.47,362.62 329.23,370.80 318.50,375.07 C307.59,379.41 294.51,386.05 283.64,392.78 C274.62,398.36 273.00,399.54 265.95,405.75 ZM 261.56 397.10 C262.42,398.48 262.98,398.25 267.40,394.68 C269.65,392.86 273.52,389.99 276.00,388.31 C281.11,384.84 311.33,369.48 320.70,365.59 C346.70,354.80 361.15,340.95 367.88,320.38 L 370.78 311.49 L 371.14 268.33 C371.34,244.59 371.13,224.80 370.69,224.36 C370.24,223.91 367.54,223.31 364.69,223.02 L 359.50 222.50 L 359.25 214.50 C358.85,201.88 359.01,202.14 351.74,201.80 L 345.50 201.50 L 345.20 195.26 C344.88,188.55 344.39,187.93 337.61,185.80 C323.31,181.31 293.57,179.58 280.40,182.47 C276.06,183.42 270.32,185.28 267.66,186.60 C265.00,187.93 262.41,188.75 261.91,188.44 C261.39,188.12 261.00,170.90 261.00,148.00 C261.00,121.99 260.65,107.90 259.98,107.49 C259.42,107.14 256.83,108.42 254.23,110.33 C249.15,114.05 240.34,118.40 235.48,119.56 C233.84,119.95 232.05,120.60 231.50,120.99 C230.09,122.01 219.76,123.86 211.50,124.58 C198.96,125.67 175.69,120.30 165.41,113.94 C163.68,112.87 161.56,112.00 160.70,112.00 C159.84,112.00 156.45,114.81 153.16,118.25 C141.49,130.46 133.50,139.21 133.15,140.16 C132.95,140.68 134.80,143.68 137.26,146.81 C147.80,160.26 149.98,168.70 150.85,199.38 L 151.50 222.50 L 162.00 223.10 L 162.00 260.85 C162.00,288.88 162.31,298.91 163.20,299.80 C164.10,300.70 175.43,301.01 207.95,301.02 L 251.50 301.04 L 256.36 305.29 L 261.22 309.55 L 261.11 352.87 C261.05,376.70 261.25,396.60 261.56,397.10 ZM 267.16 300.00 C261.92,303.79 260.38,303.76 255.51,299.75 L 251.57 296.50 L 167.50 296.50 L 167.50 207.52 L 170.50 206.95 C172.15,206.63 174.06,206.56 174.75,206.79 C175.72,207.12 176.00,216.30 176.00,248.19 L 176.00 289.16 L 178.75 288.63 C197.47,285.06 203.55,284.50 223.50,284.53 C240.92,284.56 245.25,284.86 248.88,286.28 C253.80,288.22 255.00,288.38 255.00,287.14 C255.00,285.54 244.07,282.08 235.26,280.90 C225.36,279.58 206.62,280.26 192.53,282.45 C187.60,283.22 183.21,283.63 182.78,283.36 C182.35,283.10 182.00,262.24 182.00,237.02 L 182.00 191.16 L 185.25 190.11 C187.04,189.54 192.10,188.30 196.50,187.37 C207.48,185.03 235.16,184.94 243.11,187.22 C249.25,188.97 256.58,192.44 258.76,194.62 C260.51,196.36 261.46,196.36 262.92,194.60 C264.77,192.37 274.02,188.35 280.53,186.94 C289.72,184.95 313.51,185.44 325.00,187.86 C330.23,188.96 335.74,190.33 337.25,190.90 L 340.00 191.95 L 340.00 284.28 L 335.25 283.64 C332.64,283.30 326.23,282.34 321.00,281.51 C310.06,279.79 290.75,279.53 282.89,281.01 C277.56,282.02 266.44,286.78 267.34,287.67 C267.59,287.93 270.21,287.38 273.15,286.45 C277.01,285.23 283.50,284.63 296.50,284.28 C311.63,283.88 316.54,284.14 327.27,285.90 C342.79,288.45 344.60,288.49 345.45,286.26 C345.82,285.31 346.03,266.97 345.92,245.51 L 345.73 206.50 L 348.99 206.18 C350.79,206.00 352.65,206.25 353.12,206.72 C354.13,207.73 355.50,290.87 354.58,294.55 L 353.96 297.00 L 271.30 297.00 ZM 257.32 283.47 C261.15,286.49 262.17,286.58 264.42,284.09 C271.35,276.43 296.89,273.06 322.00,276.50 C327.77,277.29 333.06,277.95 333.75,277.97 C334.73,277.99 335.00,269.15 335.00,236.98 L 335.00 195.95 L 332.27 194.91 C324.95,192.13 314.76,190.83 300.00,190.78 C280.64,190.73 272.15,192.79 264.18,199.50 L 261.05 202.14 L 257.72 199.60 C250.98,194.46 243.89,192.31 229.50,191.04 C216.63,189.90 193.45,192.08 188.13,194.93 C186.24,195.94 186.00,196.94 186.00,203.91 C186.00,208.22 186.28,213.16 186.62,214.88 L 187.25 218.00 L 197.19 218.00 C206.58,218.00 209.88,218.74 212.57,221.43 C216.70,225.56 217.16,233.02 213.59,238.27 L 211.18 241.82 L 213.52 244.02 C215.53,245.90 215.91,247.37 216.21,254.36 C216.41,258.84 216.77,263.17 217.03,264.00 C217.38,265.12 216.53,265.58 213.68,265.81 C207.98,266.28 207.00,264.92 207.00,256.53 C207.00,250.68 206.64,248.98 205.08,247.57 C202.67,245.39 195.55,244.31 194.52,245.96 C194.12,246.62 193.84,250.78 193.90,255.21 C194.03,263.87 193.16,266.00 189.48,266.00 C186.59,266.00 185.76,268.22 186.59,273.73 C187.20,277.80 187.43,278.07 189.87,277.60 C197.73,276.09 219.53,274.79 229.29,275.25 C241.56,275.82 251.20,278.64 257.32,283.47 ZM 207.00 519.41 C211.43,521.32 223.99,521.46 228.28,519.63 C232.88,517.68 237.56,512.81 239.14,508.35 C240.02,505.86 240.50,499.91 240.50,491.50 C240.49,477.72 239.71,474.73 234.63,469.15 C230.55,464.67 227.11,463.55 217.50,463.58 C205.09,463.63 199.18,466.93 195.22,476.00 C192.79,481.57 193.14,502.15 195.76,508.00 C198.10,513.25 202.07,517.27 207.00,519.41 ZM 169.06 520.00 C169.47,520.28 172.29,520.35 175.33,520.16 L 180.86 519.82 L 181.18 503.92 C181.36,495.17 181.35,482.59 181.17,475.96 L 180.83 463.90 L 176.17 464.20 L 171.50 464.50 L 171.00 483.91 C170.62,498.79 170.23,502.99 169.34,501.91 C168.71,501.13 164.06,492.51 159.01,482.75 L 149.83 465.00 L 137.00 465.00 L 137.00 520.00 L 147.00 520.00 L 147.00 500.94 C147.00,490.46 147.39,482.12 147.86,482.42 C148.34,482.71 153.13,491.17 158.52,501.22 C163.90,511.28 168.64,519.72 169.06,520.00 ZM 354.59 518.73 C360.28,521.98 374.72,521.98 380.47,518.72 C390.41,513.09 392.04,500.82 383.85,493.37 C381.56,491.29 372.64,487.80 366.39,486.53 C359.94,485.23 356.89,478.99 360.65,474.83 C361.86,473.50 363.74,473.00 367.53,473.00 C372.89,473.00 374.22,473.79 376.49,478.36 C377.37,480.12 378.45,480.50 382.53,480.50 L 387.50 480.50 L 387.24 477.20 C386.88,472.69 384.50,469.38 379.52,466.46 C375.95,464.37 374.05,464.00 366.81,464.00 C359.63,464.00 357.78,464.35 354.99,466.25 C349.46,470.01 347.50,473.48 347.50,479.50 C347.50,488.52 352.81,493.54 365.48,496.53 C376.82,499.20 380.86,504.33 375.83,509.69 C374.04,511.59 372.62,512.00 367.86,512.00 C361.82,512.00 358.84,510.22 357.43,505.77 C356.93,504.21 355.99,503.95 351.67,504.20 L 346.50 504.50 L 346.77 508.00 C347.11,512.44 349.63,515.90 354.59,518.73 ZM 301.23 519.27 C301.89,520.89 303.48,521.02 319.23,520.77 L 336.50 520.50 L 337.11 512.00 L 312.00 512.00 L 312.00 496.07 L 334.50 495.50 L 334.50 487.50 L 312.00 486.93 L 312.00 473.06 L 324.25 472.78 L 336.50 472.50 L 336.50 464.50 L 300.50 464.50 L 300.50 491.00 C300.50,505.58 300.83,518.30 301.23,519.27 ZM 245.34 264.14 C242.84,266.34 240.24,266.85 235.50,266.06 C225.19,264.34 223.50,261.02 223.50,242.50 C223.50,229.53 223.68,228.19 225.91,224.29 C229.25,218.46 233.48,216.60 241.88,217.28 C247.82,217.75 248.74,218.14 251.72,221.39 C253.85,223.72 255.00,225.99 255.00,227.88 C255.00,231.05 254.05,231.69 249.52,231.58 C247.36,231.52 246.43,230.95 246.16,229.50 C245.55,226.24 243.96,225.00 240.40,225.00 C237.86,225.00 236.62,225.65 235.27,227.71 C233.77,230.00 233.54,232.40 233.73,243.33 C233.87,251.22 234.40,256.78 235.10,257.62 C236.75,259.61 242.39,259.34 244.35,257.17 C245.32,256.09 246.00,253.65 246.00,251.24 C246.00,247.50 245.75,247.10 243.25,246.82 C240.97,246.55 240.45,245.96 240.19,243.28 C239.82,239.44 241.59,238.71 250.05,239.19 L 255.50 239.50 L 255.50 265.50 L 252.66 265.82 C250.80,266.04 249.38,265.53 248.51,264.34 C247.28,262.66 247.04,262.65 245.34,264.14 ZM 271.79 257.05 L 271.50 265.50 L 267.24 265.81 C264.39,266.01 262.81,265.68 262.47,264.79 C262.19,264.05 262.08,253.34 262.23,240.98 L 262.50 218.50 L 272.95 218.21 C284.62,217.89 287.76,218.74 291.52,223.21 C293.54,225.61 294.00,227.23 294.00,232.03 C294.00,237.49 293.72,238.21 290.15,241.96 C286.49,245.81 286.02,246.00 280.28,246.00 C276.55,246.00 273.83,246.50 273.17,247.30 C272.57,248.01 271.96,252.40 271.79,257.05 ZM 321.30 261.25 L 319.84 266.00 L 314.48 266.00 C311.53,266.00 308.93,265.66 308.70,265.25 C308.13,264.23 305.43,254.83 303.61,247.50 C302.79,244.20 300.82,236.67 299.23,230.77 C297.65,224.87 296.66,219.56 297.03,218.96 C297.40,218.36 299.66,218.01 302.10,218.19 L 306.50 218.50 L 309.77 233.00 C311.57,240.98 313.29,248.58 313.58,249.89 C314.45,253.83 315.63,251.07 317.56,240.54 C318.57,235.06 320.10,227.86 320.97,224.54 L 322.54 218.50 L 327.27 218.20 C331.10,217.95 332.00,218.20 332.00,219.52 C332.00,221.28 328.40,236.92 327.05,241.00 C326.60,242.38 325.45,246.43 324.49,250.00 C323.54,253.57 322.10,258.64 321.30,261.25 ZM 263.88 498.55 L 264.00 520.10 L 274.50 519.50 L 274.61 497.50 C274.68,485.40 274.79,474.96 274.86,474.29 C274.95,473.49 277.62,472.99 282.75,472.79 L 290.50 472.50 L 290.50 464.50 L 269.01 464.50 C248.99,464.50 247.50,464.62 247.18,466.33 C246.98,467.34 247.10,469.25 247.43,470.58 C248.01,472.87 248.44,473.00 255.52,473.00 C259.76,473.00 263.05,473.43 263.12,474.00 C263.19,474.55 263.36,475.45 263.50,476.00 C263.64,476.55 263.81,486.70 263.88,498.55 ZM 223.85 510.57 C222.34,511.36 218.99,512.00 216.42,512.00 C212.38,512.00 211.29,511.53 208.51,508.58 C205.82,505.73 205.19,504.12 204.64,498.78 C204.05,493.04 204.38,486.25 205.54,480.41 C205.77,479.26 207.15,477.12 208.62,475.66 C210.92,473.35 212.10,473.00 217.46,473.00 C222.59,473.00 224.01,473.39 225.75,475.25 C228.86,478.57 230.32,485.85 229.77,495.27 C229.22,504.74 227.74,508.56 223.85,510.57 ZM 118.07 442.25 C118.12,441.84 118.37,440.38 118.64,439.00 C118.91,437.62 118.84,432.84 118.48,428.36 L 117.84 420.22 L 112.29 421.51 C107.05,422.73 105.05,424.12 105.02,426.57 C105.01,427.16 102.75,428.66 100.00,429.90 C97.25,431.15 95.00,432.57 95.00,433.07 C95.00,433.57 93.43,434.63 91.50,435.44 C89.57,436.24 88.00,437.37 88.00,437.95 C88.00,439.10 88.67,439.21 97.50,439.54 C100.80,439.67 106.43,440.46 110.00,441.30 C117.91,443.17 117.98,443.18 118.07,442.25 ZM 272.41 237.63 C273.07,239.34 280.13,239.47 281.80,237.80 C283.50,236.10 283.33,227.52 281.57,226.06 C280.78,225.41 278.42,225.01 276.32,225.19 L 272.50 225.50 L 272.19 230.88 C272.02,233.84 272.12,236.88 272.41,237.63 ZM 194.67 237.33 C195.03,237.70 197.03,238.00 199.11,238.00 C203.35,238.00 206.00,235.34 206.00,231.11 C206.00,227.17 203.27,225.00 198.35,225.00 L 194.00 225.00 L 194.00 230.83 C194.00,234.04 194.30,236.97 194.67,237.33 ZM 121.00 441.56 C121.00,443.48 121.52,444.00 123.44,444.00 C126.94,444.00 127.71,442.00 125.05,439.84 C122.36,437.66 121.00,438.23 121.00,441.56 ZM 397.17 443.33 C396.90,444.75 397.35,445.09 399.15,444.83 C400.44,444.65 401.63,443.69 401.83,442.67 C402.10,441.25 401.65,440.91 399.85,441.17 C398.56,441.35 397.37,442.31 397.17,443.33 ZM 409.08 436.55 C410.62,437.50 410.11,434.33 408.50,433.00 C407.21,431.93 407.02,432.29 407.12,435.63 C407.18,437.76 407.44,438.71 407.69,437.74 C407.94,436.77 408.57,436.23 409.08,436.55 ZM 101.50 436.00 C101.16,435.45 101.81,435.00 102.94,435.00 C104.07,435.00 105.00,435.45 105.00,436.00 C105.00,436.55 104.35,437.00 103.56,437.00 C102.77,437.00 101.84,436.55 101.50,436.00 Z" fill="rgb(167,77,58)"/>
<path d="M 0.00 271.50 L 0.00 0.00 L 263.00 0.00 L 526.00 0.00 L 526.00 271.50 L 526.00 543.00 L 263.00 543.00 L 0.00 543.00 L 0.00 271.50 ZM 460.77 522.57 C460.95,511.81 461.46,505.15 462.18,504.28 C463.10,503.17 468.97,502.94 492.91,503.06 C512.58,503.15 522.50,502.86 522.50,502.18 C522.50,501.15 516.69,493.77 505.61,480.72 C494.48,467.61 490.00,461.67 490.00,460.01 C490.00,459.10 493.39,454.33 497.54,449.43 C501.68,444.52 509.14,435.55 514.12,429.50 L 523.17 418.50 L 477.62 418.00 C422.03,417.39 424.70,418.19 436.72,405.67 C447.17,394.79 461.93,375.43 469.01,363.31 C482.32,340.55 491.68,316.07 497.79,288.00 L 501.39 271.50 L 501.42 244.00 C501.46,214.79 501.03,210.82 494.99,185.60 C490.54,167.05 478.82,136.91 472.33,127.34 C471.02,125.42 466.77,118.82 462.86,112.67 C441.94,79.73 408.58,48.32 376.62,31.47 C354.30,19.70 329.88,10.93 308.40,6.95 C301.85,5.74 294.48,4.36 292.00,3.89 C289.52,3.41 279.85,2.73 270.50,2.37 C240.74,1.22 215.02,4.96 186.00,14.65 C173.82,18.71 148.36,29.95 142.00,34.06 C140.62,34.95 136.12,37.85 132.00,40.49 C102.36,59.52 77.05,85.80 56.44,118.96 C45.53,136.51 39.67,149.51 31.60,174.00 C26.50,189.50 23.78,204.67 21.86,228.22 C19.03,263.07 27.11,306.63 42.55,339.69 C54.48,365.26 68.00,384.74 90.29,408.50 C92.87,411.25 94.98,414.05 94.99,414.71 C95.02,417.70 90.52,418.00 46.57,418.00 C14.67,418.00 2.00,418.31 2.00,419.11 C2.00,420.58 5.27,424.61 21.38,443.00 C28.85,451.52 34.97,459.20 34.98,460.06 C35.00,461.74 32.09,465.62 24.92,473.48 C14.21,485.22 2.00,500.15 2.00,501.50 C2.00,502.75 6.40,503.01 31.75,503.24 L 61.50 503.50 L 61.76 520.50 C61.90,529.85 62.22,538.06 62.48,538.75 C62.85,539.75 103.21,539.95 261.72,539.75 L 460.50 539.50 L 460.77 522.57 ZM 169.06 520.00 C168.64,519.72 163.90,511.28 158.52,501.22 C153.13,491.17 148.34,482.71 147.86,482.42 C147.39,482.12 147.00,490.46 147.00,500.94 L 147.00 520.00 L 142.00 520.00 L 137.00 520.00 L 137.00 492.50 L 137.00 465.00 L 143.42 465.00 L 149.83 465.00 L 159.01 482.75 C164.06,492.51 168.71,501.13 169.34,501.91 C170.23,502.99 170.62,498.79 171.00,483.91 L 171.50 464.50 L 176.17 464.20 L 180.83 463.90 L 181.17 475.96 C181.35,482.59 181.36,495.17 181.18,503.92 L 180.86 519.82 L 175.33 520.16 C172.29,520.35 169.47,520.28 169.06,520.00 ZM 207.00 519.41 C202.07,517.27 198.10,513.25 195.76,508.00 C193.14,502.15 192.79,481.57 195.22,476.00 C199.18,466.93 205.09,463.63 217.50,463.58 C227.11,463.55 230.55,464.67 234.63,469.15 C239.71,474.73 240.49,477.72 240.50,491.50 C240.50,499.91 240.02,505.86 239.14,508.35 C237.56,512.81 232.88,517.68 228.28,519.63 C223.99,521.46 211.43,521.32 207.00,519.41 ZM 223.85 510.57 C227.74,508.56 229.22,504.74 229.77,495.27 C230.32,485.85 228.86,478.57 225.75,475.25 C224.01,473.39 222.59,473.00 217.46,473.00 C212.10,473.00 210.92,473.35 208.62,475.66 C207.15,477.12 205.77,479.26 205.54,480.41 C204.38,486.25 204.05,493.04 204.64,498.78 C205.19,504.12 205.82,505.73 208.51,508.58 C211.29,511.53 212.38,512.00 216.42,512.00 C218.99,512.00 222.34,511.36 223.85,510.57 ZM 301.23 519.27 C300.83,518.30 300.50,505.58 300.50,491.00 L 300.50 464.50 L 318.50 464.50 L 336.50 464.50 L 336.50 468.50 L 336.50 472.50 L 324.25 472.78 L 312.00 473.06 L 312.00 480.00 L 312.00 486.93 L 323.25 487.22 L 334.50 487.50 L 334.50 491.50 L 334.50 495.50 L 323.25 495.78 L 312.00 496.07 L 312.00 504.03 L 312.00 512.00 L 324.56 512.00 L 337.11 512.00 L 336.81 516.25 L 336.50 520.50 L 319.23 520.77 C303.48,521.02 301.89,520.89 301.23,519.27 ZM 354.59 518.73 C349.63,515.90 347.11,512.44 346.77,508.00 L 346.50 504.50 L 351.67 504.20 C355.99,503.95 356.93,504.21 357.43,505.77 C358.84,510.22 361.82,512.00 367.86,512.00 C372.62,512.00 374.04,511.59 375.83,509.69 C380.86,504.33 376.82,499.20 365.48,496.53 C352.81,493.54 347.50,488.52 347.50,479.50 C347.50,473.48 349.46,470.01 354.99,466.25 C357.78,464.35 359.63,464.00 366.81,464.00 C374.05,464.00 375.95,464.37 379.52,466.46 C384.50,469.38 386.88,472.69 387.24,477.20 L 387.50 480.50 L 382.53 480.50 C378.45,480.50 377.37,480.12 376.49,478.36 C374.22,473.79 372.89,473.00 367.53,473.00 C363.74,473.00 361.86,473.50 360.65,474.83 C356.89,478.99 359.94,485.23 366.39,486.53 C372.64,487.80 381.56,491.29 383.85,493.37 C392.04,500.82 390.41,513.09 380.47,518.72 C374.72,521.98 360.28,521.98 354.59,518.73 ZM 263.88 498.55 C263.81,486.70 263.64,476.55 263.50,476.00 C263.36,475.45 263.19,474.55 263.12,474.00 C263.05,473.43 259.76,473.00 255.52,473.00 C248.44,473.00 248.01,472.87 247.43,470.58 C247.10,469.25 246.98,467.34 247.18,466.33 C247.50,464.62 248.99,464.50 269.01,464.50 L 290.50 464.50 L 290.50 468.50 L 290.50 472.50 L 282.75 472.79 C277.62,472.99 274.95,473.49 274.86,474.29 C274.79,474.96 274.68,485.40 274.61,497.50 L 274.50 519.50 L 269.25 519.80 L 264.00 520.10 L 263.88 498.55 ZM 397.17 443.33 C397.37,442.31 398.56,441.35 399.85,441.17 C401.65,440.91 402.10,441.25 401.83,442.67 C401.63,443.69 400.44,444.65 399.15,444.83 C397.35,445.09 396.90,444.75 397.17,443.33 ZM 121.00 441.56 C121.00,438.23 122.36,437.66 125.05,439.84 C127.71,442.00 126.94,444.00 123.44,444.00 C121.52,444.00 121.00,443.48 121.00,441.56 ZM 250.50 425.87 C238.68,415.23 226.46,407.45 207.42,398.44 C167.56,379.56 160.30,375.25 149.85,364.22 C141.56,355.48 137.74,349.89 133.05,339.68 C128.29,329.32 125.35,320.28 124.04,312.00 C123.43,308.10 123.00,281.06 122.97,244.50 C122.93,178.28 122.81,176.65 117.40,167.42 C115.84,164.75 110.16,158.00 104.78,152.42 C99.40,146.83 95.00,141.84 95.00,141.32 C95.00,140.40 101.57,133.19 128.93,104.06 C136.39,96.11 145.37,86.55 148.89,82.81 C152.40,79.06 156.00,76.00 156.89,76.00 C157.78,76.00 161.67,78.38 165.53,81.28 C179.51,91.80 193.08,96.89 207.31,96.96 C223.68,97.05 236.90,90.58 256.00,73.14 C258.48,70.88 260.95,69.04 261.50,69.05 C262.05,69.05 265.20,71.55 268.50,74.59 C290.29,94.67 309.40,100.92 330.86,94.97 C341.16,92.12 354.68,84.86 361.99,78.25 C363.36,77.01 365.18,76.00 366.04,76.00 C367.29,76.00 410.80,120.33 423.94,135.00 C429.93,141.68 430.08,141.08 419.61,151.79 C408.34,163.30 406.83,165.18 403.46,171.89 C399.79,179.21 399.08,192.90 399.02,258.00 C398.98,312.23 398.96,312.55 396.56,322.22 C393.60,334.12 390.06,342.31 383.93,351.50 C378.57,359.54 366.19,371.73 357.63,377.39 C351.65,381.34 326.55,394.10 322.00,395.49 C316.90,397.06 290.91,410.89 284.81,415.28 C281.34,417.78 274.69,423.24 270.04,427.42 C265.38,431.59 261.33,434.97 261.04,434.93 C260.74,434.90 256.00,430.82 250.50,425.87 ZM 265.95 405.75 C273.00,399.54 274.62,398.36 283.64,392.78 C294.51,386.05 307.59,379.41 318.50,375.07 C329.23,370.80 344.47,362.62 350.00,358.17 C365.63,345.57 375.51,329.38 377.98,312.31 C378.53,308.44 378.97,279.12 378.98,244.43 C378.99,206.54 379.40,181.12 380.04,177.43 C382.12,165.67 386.88,156.27 395.22,147.50 C397.84,144.75 399.98,141.89 399.99,141.15 C400.00,139.26 365.06,103.00 363.22,103.00 C362.40,103.00 359.65,104.27 357.11,105.81 C349.76,110.29 339.42,114.10 329.28,116.05 C319.75,117.89 301.02,116.83 293.00,114.01 C282.37,110.27 268.17,102.31 263.13,97.28 C261.98,96.12 261.44,96.14 259.63,97.43 C238.50,112.46 226.15,117.00 206.33,117.00 C190.93,117.00 178.97,113.48 162.65,104.13 C159.49,102.32 158.53,102.15 157.28,103.18 C155.42,104.73 143.97,116.56 141.01,120.00 C139.83,121.38 135.29,126.15 130.93,130.62 C126.57,135.08 123.00,139.36 123.01,140.12 C123.01,140.88 125.05,143.75 127.53,146.50 C133.42,153.03 138.47,162.13 140.01,169.00 C140.69,172.02 141.64,175.80 142.12,177.40 C142.61,178.99 143.00,209.19 143.00,244.51 C143.00,282.12 143.40,310.86 143.98,313.88 C145.28,320.77 150.43,332.92 154.74,339.31 C163.22,351.87 177.39,362.90 195.47,371.02 C228.57,385.88 245.44,395.59 258.43,407.25 C261.07,409.62 261.69,409.50 265.95,405.75 ZM 261.56 397.10 C261.25,396.60 261.05,376.70 261.11,352.87 L 261.22 309.55 L 256.36 305.29 L 251.50 301.04 L 207.95 301.02 C175.43,301.01 164.10,300.70 163.20,299.80 C162.31,298.91 162.00,288.88 162.00,260.85 L 162.00 223.10 L 156.75 222.80 L 151.50 222.50 L 150.85 199.38 C149.98,168.70 147.80,160.26 137.26,146.81 C134.80,143.68 132.95,140.68 133.15,140.16 C133.50,139.21 141.49,130.46 153.16,118.25 C156.45,114.81 159.84,112.00 160.70,112.00 C161.56,112.00 163.68,112.87 165.41,113.94 C175.69,120.30 198.96,125.67 211.50,124.58 C219.76,123.86 230.09,122.01 231.50,120.99 C232.05,120.60 233.84,119.95 235.48,119.56 C240.34,118.40 249.15,114.05 254.23,110.33 C256.83,108.42 259.42,107.14 259.98,107.49 C260.65,107.90 261.00,121.99 261.00,148.00 C261.00,170.90 261.39,188.12 261.91,188.44 C262.41,188.75 265.00,187.93 267.66,186.60 C270.32,185.28 276.06,183.42 280.40,182.47 C293.57,179.58 323.31,181.31 337.61,185.80 C344.39,187.93 344.88,188.55 345.20,195.26 L 345.50 201.50 L 351.74 201.80 C359.01,202.14 358.85,201.88 359.25,214.50 L 359.50 222.50 L 364.69 223.02 C367.54,223.31 370.24,223.91 370.69,224.36 C371.13,224.80 371.34,244.59 371.14,268.33 L 370.78 311.49 L 367.88 320.38 C361.15,340.95 346.70,354.80 320.70,365.59 C311.33,369.48 281.11,384.84 276.00,388.31 C273.52,389.99 269.65,392.86 267.40,394.68 C262.98,398.25 262.42,398.48 261.56,397.10 ZM 267.16 300.00 L 271.30 297.00 L 312.63 297.00 L 353.96 297.00 L 354.58 294.55 C355.50,290.87 354.13,207.73 353.12,206.72 C352.65,206.25 350.79,206.00 348.99,206.18 L 345.73 206.50 L 345.92 245.51 C346.03,266.97 345.82,285.31 345.45,286.26 C344.60,288.49 342.79,288.45 327.27,285.90 C316.54,284.14 311.63,283.88 296.50,284.28 C283.50,284.63 277.01,285.23 273.15,286.45 C270.21,287.38 267.59,287.93 267.34,287.67 C266.44,286.78 277.56,282.02 282.89,281.01 C290.75,279.53 310.06,279.79 321.00,281.51 C326.23,282.34 332.64,283.30 335.25,283.64 L 340.00 284.28 L 340.00 238.11 L 340.00 191.95 L 337.25 190.90 C335.74,190.33 330.23,188.96 325.00,187.86 C313.51,185.44 289.72,184.95 280.53,186.94 C274.02,188.35 264.77,192.37 262.92,194.60 C261.46,196.36 260.51,196.36 258.76,194.62 C256.58,192.44 249.25,188.97 243.11,187.22 C235.16,184.94 207.48,185.03 196.50,187.37 C192.10,188.30 187.04,189.54 185.25,190.11 L 182.00 191.16 L 182.00 237.02 C182.00,262.24 182.35,283.10 182.78,283.36 C183.21,283.63 187.60,283.22 192.53,282.45 C206.62,280.26 225.36,279.58 235.26,280.90 C244.07,282.08 255.00,285.54 255.00,287.14 C255.00,288.38 253.80,288.22 248.88,286.28 C245.25,284.86 240.92,284.56 223.50,284.53 C203.55,284.50 197.47,285.06 178.75,288.63 L 176.00 289.16 L 176.00 248.19 C176.00,216.30 175.72,207.12 174.75,206.79 C174.06,206.56 172.15,206.63 170.50,206.95 L 167.50 207.52 L 167.50 252.01 L 167.50 296.50 L 209.53 296.50 L 251.57 296.50 L 255.51 299.75 C260.38,303.76 261.92,303.79 267.16,300.00 ZM 257.32 283.47 C251.20,278.64 241.56,275.82 229.29,275.25 C219.53,274.79 197.73,276.09 189.87,277.60 C187.43,278.07 187.20,277.80 186.59,273.73 C185.76,268.22 186.59,266.00 189.48,266.00 C193.16,266.00 194.03,263.87 193.90,255.21 C193.84,250.78 194.12,246.62 194.52,245.96 C195.55,244.31 202.67,245.39 205.08,247.57 C206.64,248.98 207.00,250.68 207.00,256.53 C207.00,264.92 207.98,266.28 213.68,265.81 C216.53,265.58 217.38,265.12 217.03,264.00 C216.77,263.17 216.41,258.84 216.21,254.36 C215.91,247.37 215.53,245.90 213.52,244.02 L 211.18 241.82 L 213.59 238.27 C217.16,233.02 216.70,225.56 212.57,221.43 C209.88,218.74 206.58,218.00 197.19,218.00 L 187.25 218.00 L 186.62 214.88 C186.28,213.16 186.00,208.22 186.00,203.91 C186.00,196.94 186.24,195.94 188.13,194.93 C193.45,192.08 216.63,189.90 229.50,191.04 C243.89,192.31 250.98,194.46 257.72,199.60 L 261.05 202.14 L 264.18 199.50 C272.15,192.79 280.64,190.73 300.00,190.78 C314.76,190.83 324.95,192.13 332.27,194.91 L 335.00 195.95 L 335.00 236.98 C335.00,269.15 334.73,277.99 333.75,277.97 C333.06,277.95 327.77,277.29 322.00,276.50 C296.89,273.06 271.35,276.43 264.42,284.09 C262.17,286.58 261.15,286.49 257.32,283.47 ZM 245.34 264.14 C247.04,262.65 247.28,262.66 248.51,264.34 C249.38,265.53 250.80,266.04 252.66,265.82 L 255.50 265.50 L 255.50 252.50 L 255.50 239.50 L 250.05 239.19 C241.59,238.71 239.82,239.44 240.19,243.28 C240.45,245.96 240.97,246.55 243.25,246.82 C245.75,247.10 246.00,247.50 246.00,251.24 C246.00,253.65 245.32,256.09 244.35,257.17 C242.39,259.34 236.75,259.61 235.10,257.62 C234.40,256.78 233.87,251.22 233.73,243.33 C233.54,232.40 233.77,230.00 235.27,227.71 C236.62,225.65 237.86,225.00 240.40,225.00 C243.96,225.00 245.55,226.24 246.16,229.50 C246.43,230.95 247.36,231.52 249.52,231.58 C254.05,231.69 255.00,231.05 255.00,227.88 C255.00,225.99 253.85,223.72 251.72,221.39 C248.74,218.14 247.82,217.75 241.88,217.28 C233.48,216.60 229.25,218.46 225.91,224.29 C223.68,228.19 223.50,229.53 223.50,242.50 C223.50,261.02 225.19,264.34 235.50,266.06 C240.24,266.85 242.84,266.34 245.34,264.14 ZM 271.79 257.05 C271.96,252.40 272.57,248.01 273.17,247.30 C273.83,246.50 276.55,246.00 280.28,246.00 C286.02,246.00 286.49,245.81 290.15,241.96 C293.72,238.21 294.00,237.49 294.00,232.03 C294.00,227.23 293.54,225.61 291.52,223.21 C287.76,218.74 284.62,217.89 272.95,218.21 L 262.50 218.50 L 262.23 240.98 C262.08,253.34 262.19,264.05 262.47,264.79 C262.81,265.68 264.39,266.01 267.24,265.81 L 271.50 265.50 L 271.79 257.05 ZM 321.30 261.25 C322.10,258.64 323.54,253.57 324.49,250.00 C325.45,246.43 326.60,242.38 327.05,241.00 C328.40,236.92 332.00,221.28 332.00,219.52 C332.00,218.20 331.10,217.95 327.27,218.20 L 322.54 218.50 L 320.97 224.54 C320.10,227.86 318.57,235.06 317.56,240.54 C315.63,251.07 314.45,253.83 313.58,249.89 C313.29,248.58 311.57,240.98 309.77,233.00 L 306.50 218.50 L 302.10 218.19 C299.66,218.01 297.40,218.36 297.03,218.96 C296.66,219.56 297.65,224.87 299.23,230.77 C300.82,236.67 302.79,244.20 303.61,247.50 C305.43,254.83 308.13,264.23 308.70,265.25 C308.93,265.66 311.53,266.00 314.48,266.00 L 319.84 266.00 L 321.30 261.25 ZM 194.67 237.33 C194.30,236.97 194.00,234.04 194.00,230.83 L 194.00 225.00 L 198.35 225.00 C203.27,225.00 206.00,227.17 206.00,231.11 C206.00,235.34 203.35,238.00 199.11,238.00 C197.03,238.00 195.03,237.70 194.67,237.33 ZM 272.41 237.63 C272.12,236.88 272.02,233.84 272.19,230.88 L 272.50 225.50 L 276.32 225.19 C278.42,225.01 280.78,225.41 281.57,226.06 C283.33,227.52 283.50,236.10 281.80,237.80 C280.13,239.47 273.07,239.34 272.41,237.63 Z" fill="rgb(251,249,248)"/>
</g>
</svg>